<svg width="52" height="31" viewBox="0 0 52 31" fill="none" xmlns="http://www.w3.org/2000/svg">
<path d="M18.9483 4.20724L19.7957 3.67629L18.9483 4.20724C19.6098 5.26302 20.1706 6.33832 20.3118 6.99626V15.975C19.4796 15.5944 18.3053 14.7013 17.0125 12.8781C15.523 10.7776 13.9156 7.49503 12.5298 2.51221C12.2915 1.65531 11.5089 1.03183 10.5929 1.03183H3.31322C2.00702 1.03183 1.01118 2.2815 1.41223 3.58259C3.0169 8.78838 6.13351 15.8303 10.7286 21.2977C15.3244 26.7659 21.5448 30.8118 29.2869 29.5567C30.4181 29.3733 31.0734 28.2896 30.9056 27.2614C30.3851 24.0722 30.6375 22.5129 30.9638 21.8559C31.1091 21.5633 31.2303 21.5233 31.2402 21.5201L31.2405 21.52C31.26 21.5135 31.3132 21.5043 31.4059 21.5497C31.4989 21.5953 31.5888 21.6372 31.6791 21.6794C32.1593 21.9036 32.6527 22.134 33.7026 22.9386C34.9915 23.9263 37.0836 25.7576 40.8095 29.3948C41.1699 29.7466 41.6632 29.9566 42.1709 29.9683C45.9362 30.055 47.9611 29.9526 49.0613 29.7974C49.5966 29.7219 50.0001 29.6232 50.2929 29.4767C50.4416 29.4024 50.6358 29.2798 50.7867 29.0728C50.9604 28.8345 51.0366 28.5361 50.9833 28.2377C50.9478 28.0389 50.8637 27.898 50.817 27.8285C50.7935 27.7935 50.7725 27.7666 50.764 27.7558L50.7597 27.7504C50.7593 27.7499 50.7589 27.7494 50.7585 27.7489L50.7581 27.7484L50.7564 27.7462L50.7555 27.745L42.1643 16.6212L42.1633 16.6197L42.1632 16.6194C42.1631 16.6193 42.1631 16.6191 42.163 16.6188C42.163 16.6186 42.163 16.6182 42.1629 16.6178C42.1629 16.6168 42.1631 16.6158 42.1634 16.6148C42.1636 16.614 42.1642 16.6124 42.1658 16.6101C44.6828 13.0266 48.7079 6.53428 49.9699 3.513C50.2276 2.89621 50.123 2.24519 49.7553 1.76253C49.3997 1.29584 48.8377 1.03187 48.2414 1.03036C46.9357 1.02706 45.8364 1.0186 44.9106 1.01147C43.1769 0.998117 42.0516 0.98945 41.3179 1.02818C40.7678 1.05722 40.2689 1.11601 39.8601 1.31109C39.3608 1.54936 39.1266 1.92176 38.9751 2.20414C38.8151 2.50234 38.7608 2.79912 38.7364 3.01602C38.5906 4.3095 37.05 9.6814 31.0899 13.2442V2.17885C31.0899 1.97132 31.036 1.6336 30.7546 1.35627C30.4759 1.08154 30.1418 1.03183 29.9415 1.03183H20.667C18.9955 1.03183 18.1288 2.89936 18.9483 4.20724ZM20.3118 16.2626C20.3118 16.2646 20.3116 16.2644 20.3118 16.2623V16.2626Z" stroke="#F0EDFF" stroke-width="2" stroke-linejoin="round"/>
</svg>
