<svg width="33" height="31" viewBox="0 0 33 31" fill="none" xmlns="http://www.w3.org/2000/svg">
<path d="M1.60417 13.5817C1.22942 13.7432 0.990418 14.1162 1.00029 14.5242C1.01017 14.9322 1.26694 15.2932 1.64906 15.4364L10.988 18.9364C11.2945 19.0512 11.6377 19.0089 11.9071 18.823L12.4901 18.4205C12.3931 18.5569 12.3312 18.7165 12.3117 18.8851L11.3287 27.3851C11.2806 27.8003 11.4959 28.2015 11.8683 28.3911C12.2407 28.5808 12.6917 28.5188 12.9992 28.2358L17.5492 24.0482L25.24 29.8008C25.5161 30.0073 25.879 30.057 26.2005 29.9324C26.5219 29.8078 26.7565 29.5264 26.8212 29.1877L31.9822 2.18775C32.0517 1.82413 31.9147 1.45186 31.6259 1.22014C31.3372 0.988408 30.9441 0.935139 30.6042 1.08168L1.60417 13.5817Z" stroke="#F0EDFF" stroke-width="2" stroke-linejoin="round"/>
</svg>
